<svg width="398" height="90" viewBox="0 0 398 90" fill="none" xmlns="http://www.w3.org/2000/svg">
<rect width="397.139" height="89.0139" fill="#272727"/>
<path d="M35.6696 49.7168H26.0696V59.3168H35.6696V49.7168Z" fill="#F9F9F9"/>
<path d="M50.0705 68.9169C55.4352 68.9169 59.6706 64.6816 59.6706 59.3169H35.6707V68.9169H50.0705Z" fill="#F9F9F9"/>
<path d="M45.2707 40.1167C39.906 40.1167 35.6707 44.3518 35.6707 49.7165H74.0706C79.4353 49.7165 83.6707 45.4812 83.6707 40.1167H74.0706H45.2707Z" fill="#F9F9F9"/>
<path d="M69.2692 20.9167C63.9045 20.9167 59.6692 25.1521 59.6692 30.5168H83.6693V20.9167H69.2692Z" fill="#F9F9F9"/>
<path d="M93.268 30.5168H83.668V40.1167H93.268V30.5168Z" fill="#F9F9F9"/>
<path d="M131.669 55.6462V34.1875H154.54V38.9875H137.598V42.3756H151.716V47.1756H137.598V50.8462H154.54V55.6462H131.669Z" fill="#F9F9F9"/>
<path d="M131.669 55.6462V34.1875H154.54V38.9875H137.598V42.3756H151.716V47.1756H137.598V50.8462H154.54V55.6462H131.669Z" fill="#F9F9F9"/>
<path d="M161.318 55.6462V34.1875H167.247V50.5638H181.364V55.6462H161.318Z" fill="#F9F9F9"/>
<path d="M161.318 55.6462V34.1875H167.247V50.5638H181.364V55.6462H161.318Z" fill="#F9F9F9"/>
<path d="M189.55 53.105C187.009 51.1286 185.879 48.305 185.879 44.9168C185.879 41.5287 187.009 38.7052 189.55 36.7287C192.092 34.7522 195.48 33.6228 199.716 33.6228C203.95 33.6228 207.338 34.7522 209.88 36.7287C212.421 38.7052 213.551 41.5287 213.551 44.9168C213.551 48.305 212.421 51.1286 209.88 53.105C207.338 55.0815 203.95 56.2109 199.716 56.2109C195.48 56.2109 192.092 55.0815 189.55 53.105ZM205.361 49.7168C206.774 48.5874 207.338 46.8932 207.338 44.9168C207.338 42.9403 206.774 41.5287 205.361 40.3993C203.95 39.2699 201.974 38.7052 199.716 38.7052C197.456 38.7052 195.48 39.2699 194.069 40.3993C192.656 41.5287 192.092 43.2226 192.092 44.9168C192.092 46.6109 192.656 48.305 194.069 49.7168C195.48 50.8462 197.456 51.4109 199.716 51.4109C201.974 51.4109 203.95 50.8462 205.361 49.7168Z" fill="#F9F9F9"/>
<path d="M189.55 53.105C187.009 51.1286 185.879 48.305 185.879 44.9168C185.879 41.5287 187.009 38.7052 189.55 36.7287C192.092 34.7522 195.48 33.6228 199.716 33.6228C203.95 33.6228 207.338 34.7522 209.88 36.7287C212.421 38.7052 213.551 41.5287 213.551 44.9168C213.551 48.305 212.421 51.1286 209.88 53.105C207.338 55.0815 203.95 56.2109 199.716 56.2109C195.48 56.2109 192.092 55.0815 189.55 53.105ZM205.361 49.7168C206.774 48.5874 207.338 46.8932 207.338 44.9168C207.338 42.9403 206.774 41.5287 205.361 40.3993C203.95 39.2699 201.974 38.7052 199.716 38.7052C197.456 38.7052 195.48 39.2699 194.069 40.3993C192.656 41.5287 192.092 43.2226 192.092 44.9168C192.092 46.6109 192.656 48.305 194.069 49.7168C195.48 50.8462 197.456 51.4109 199.716 51.4109C201.974 51.4109 203.95 50.8462 205.361 49.7168Z" fill="#F9F9F9"/>
<path d="M222.304 53.105C220.045 51.1286 218.915 48.305 218.915 44.9168C218.915 41.5287 220.045 38.7052 222.585 36.7287C225.128 34.7522 228.515 33.6228 232.469 33.6228C237.833 33.6228 242.069 35.5993 244.327 38.9875L240.093 41.8109C238.116 39.5522 235.575 38.1405 232.469 38.1405C230.209 38.1405 228.233 38.7052 226.822 39.8346C225.409 40.964 224.845 42.6579 224.845 44.3521C224.845 48.305 227.669 50.8462 232.469 50.8462C235.009 50.8462 237.833 49.7168 239.527 47.7403H233.316V43.7874H245.457V55.6462H240.656V52.8227C238.68 55.0815 235.856 56.2109 231.903 56.2109C227.952 56.2109 224.562 55.0815 222.304 53.105Z" fill="#F9F9F9"/>
<path d="M222.304 53.105C220.045 51.1286 218.915 48.305 218.915 44.9168C218.915 41.5287 220.045 38.7052 222.585 36.7287C225.128 34.7522 228.515 33.6228 232.469 33.6228C237.833 33.6228 242.069 35.5993 244.327 38.9875L240.093 41.8109C238.116 39.5522 235.575 38.1405 232.469 38.1405C230.209 38.1405 228.233 38.7052 226.822 39.8346C225.409 40.964 224.845 42.6579 224.845 44.3521C224.845 48.305 227.669 50.8462 232.469 50.8462C235.009 50.8462 237.833 49.7168 239.527 47.7403H233.316V43.7874H245.457V55.6462H240.656V52.8227C238.68 55.0815 235.856 56.2109 231.903 56.2109C227.952 56.2109 224.562 55.0815 222.304 53.105Z" fill="#F9F9F9"/>
<path d="M252.234 55.6462V34.1875H269.175C271.433 34.1875 273.409 34.7522 274.822 36.164C276.233 37.5758 277.08 39.2699 277.08 41.2462C277.08 43.2226 276.516 44.9168 274.822 46.0462C273.409 47.1756 271.716 48.0227 269.458 48.0227L277.646 55.6462H269.458L262.115 48.0227H257.881V55.6462H252.234ZM258.164 38.9875V43.505H267.762C269.739 43.505 270.869 42.6579 270.869 41.2462C270.869 39.8346 269.739 38.9875 267.762 38.9875H258.164Z" fill="#F9F9F9"/>
<path d="M252.234 55.6462V34.1875H269.175C271.433 34.1875 273.409 34.7522 274.822 36.164C276.233 37.5758 277.08 39.2699 277.08 41.2462C277.08 43.2226 276.516 44.9168 274.822 46.0462C273.409 47.1756 271.716 48.0227 269.458 48.0227L277.646 55.6462H269.458L262.115 48.0227H257.881V55.6462H252.234ZM258.164 38.9875V43.505H267.762C269.739 43.505 270.869 42.6579 270.869 41.2462C270.869 39.8346 269.739 38.9875 267.762 38.9875H258.164Z" fill="#F9F9F9"/>
<path d="M285.835 53.105C283.293 51.1286 282.165 48.305 282.165 44.9168C282.165 41.5287 283.293 38.7052 285.835 36.7287C288.376 34.7522 291.764 33.6228 296 33.6228C300.234 33.6228 303.624 34.7522 306.164 36.7287C308.705 38.7052 309.835 41.5287 309.835 44.9168C309.835 48.305 308.705 51.1286 306.164 53.105C303.624 55.0815 300.234 56.2109 296 56.2109C291.764 56.2109 288.376 55.0815 285.835 53.105ZM301.647 49.7168C303.058 48.5874 303.624 46.8932 303.624 44.9168C303.624 42.9403 303.058 41.5287 301.647 40.3993C300.234 39.2699 298.257 38.7052 296 38.7052C293.74 38.7052 291.764 39.2699 290.353 40.3993C288.94 41.5287 288.376 43.2226 288.376 44.9168C288.376 46.6109 288.94 48.305 290.353 49.7168C291.764 50.8462 293.74 51.4109 296 51.4109C298.257 51.4109 300.234 50.8462 301.647 49.7168Z" fill="#F9F9F9"/>
<path d="M285.835 53.105C283.293 51.1286 282.165 48.305 282.165 44.9168C282.165 41.5287 283.293 38.7052 285.835 36.7287C288.376 34.7522 291.764 33.6228 296 33.6228C300.234 33.6228 303.624 34.7522 306.164 36.7287C308.705 38.7052 309.835 41.5287 309.835 44.9168C309.835 48.305 308.705 51.1286 306.164 53.105C303.624 55.0815 300.234 56.2109 296 56.2109C291.764 56.2109 288.376 55.0815 285.835 53.105ZM301.647 49.7168C303.058 48.5874 303.624 46.8932 303.624 44.9168C303.624 42.9403 303.058 41.5287 301.647 40.3993C300.234 39.2699 298.257 38.7052 296 38.7052C293.74 38.7052 291.764 39.2699 290.353 40.3993C288.94 41.5287 288.376 43.2226 288.376 44.9168C288.376 46.6109 288.94 48.305 290.353 49.7168C291.764 50.8462 293.74 51.4109 296 51.4109C298.257 51.4109 300.234 50.8462 301.647 49.7168Z" fill="#F9F9F9"/>
<path d="M340.611 34.1875V46.3285C340.611 52.8227 336.376 56.2109 328.187 56.2109C319.999 56.2109 315.765 52.8227 315.765 46.3285V34.1875H321.693V45.7638C321.693 49.4344 323.952 51.4109 328.187 51.4109C332.423 51.4109 334.683 49.4344 334.683 45.7638V34.1875H340.611Z" fill="#F9F9F9"/>
<path d="M340.611 34.1875V46.3285C340.611 52.8227 336.376 56.2109 328.187 56.2109C319.999 56.2109 315.765 52.8227 315.765 46.3285V34.1875H321.693V45.7638C321.693 49.4344 323.952 51.4109 328.187 51.4109C332.423 51.4109 334.683 49.4344 334.683 45.7638V34.1875H340.611Z" fill="#F9F9F9"/>
<path d="M353.598 49.4344V55.6462H347.668V34.1875H363.762C369.126 34.1875 372.514 37.011 372.514 41.8109C372.514 44.0697 371.667 46.0462 370.256 47.4579C368.844 48.8697 366.586 49.4344 364.043 49.4344H353.598ZM353.598 38.9875V44.6344H362.633C365.173 44.6344 366.303 43.505 366.303 41.8109C366.303 40.1169 364.89 38.9875 362.633 38.9875H353.598Z" fill="#F9F9F9"/>
<path d="M353.598 49.4344V55.6462H347.668V34.1875H363.762C369.126 34.1875 372.514 37.011 372.514 41.8109C372.514 44.0697 371.667 46.0462 370.256 47.4579C368.844 48.8697 366.586 49.4344 364.043 49.4344H353.598ZM353.598 38.9875V44.6344H362.633C365.173 44.6344 366.303 43.505 366.303 41.8109C366.303 40.1169 364.89 38.9875 362.633 38.9875H353.598Z" fill="#F9F9F9"/>
</svg>
