<svg width="231" height="32" viewBox="0 0 231 32" fill="none" xmlns="http://www.w3.org/2000/svg">
<path d="M6.40003 19.2H0V25.6H6.40003V19.2Z" fill="#F9F9F9"/>
<path d="M16.0008 32.0001C19.5773 32.0001 22.4008 29.1766 22.4008 25.6001H6.40088V32.0001H16.0008Z" fill="#F9F9F9"/>
<path d="M12.8009 12.8C9.22442 12.8 6.40088 15.6235 6.40088 19.1999H32.0009C35.5773 19.1999 38.4009 16.3764 38.4009 12.8H32.0009H12.8009Z" fill="#F9F9F9"/>
<path d="M28.7999 0C25.2234 0 22.3999 2.82354 22.3999 6.40003H38.4V0H28.7999Z" fill="#F9F9F9"/>
<path d="M44.799 6.3999H38.3989V12.7998H44.799V6.3999Z" fill="#F9F9F9"/>
<path d="M70.3994 23.153V8.84717H85.6465V12.0472H74.3524V14.3059H83.7642V17.5059H74.3524V19.953H85.6465V23.153H70.3994Z" fill="#F9F9F9"/>
<path d="M70.3994 23.153V8.84717H85.6465V12.0472H74.3524V14.3059H83.7642V17.5059H74.3524V19.953H85.6465V23.153H70.3994Z" fill="#F9F9F9"/>
<path d="M90.1655 23.153V8.84717H94.1185V19.7647H103.53V23.153H90.1655Z" fill="#F9F9F9"/>
<path d="M90.1655 23.153V8.84717H94.1185V19.7647H103.53V23.153H90.1655Z" fill="#F9F9F9"/>
<path d="M108.986 21.4589C107.293 20.1412 106.54 18.2588 106.54 16C106.54 13.7413 107.293 11.859 108.986 10.5413C110.682 9.22365 112.94 8.4707 115.764 8.4707C118.587 8.4707 120.845 9.22365 122.54 10.5413C124.234 11.859 124.987 13.7413 124.987 16C124.987 18.2588 124.234 20.1412 122.54 21.4589C120.845 22.7765 118.587 23.5295 115.764 23.5295C112.94 23.5295 110.682 22.7765 108.986 21.4589ZM119.527 19.2C120.469 18.4471 120.845 17.3177 120.845 16C120.845 14.6824 120.469 13.7413 119.527 12.9884C118.587 12.2354 117.269 11.859 115.764 11.859C114.258 11.859 112.94 12.2354 111.999 12.9884C111.057 13.7413 110.682 14.8706 110.682 16C110.682 17.1294 111.057 18.2588 111.999 19.2C112.94 19.953 114.258 20.3294 115.764 20.3294C117.269 20.3294 118.587 19.953 119.527 19.2Z" fill="#F9F9F9"/>
<path d="M108.986 21.4589C107.293 20.1412 106.54 18.2588 106.54 16C106.54 13.7413 107.293 11.859 108.986 10.5413C110.682 9.22365 112.94 8.4707 115.764 8.4707C118.587 8.4707 120.845 9.22365 122.54 10.5413C124.234 11.859 124.987 13.7413 124.987 16C124.987 18.2588 124.234 20.1412 122.54 21.4589C120.845 22.7765 118.587 23.5295 115.764 23.5295C112.94 23.5295 110.682 22.7765 108.986 21.4589ZM119.527 19.2C120.469 18.4471 120.845 17.3177 120.845 16C120.845 14.6824 120.469 13.7413 119.527 12.9884C118.587 12.2354 117.269 11.859 115.764 11.859C114.258 11.859 112.94 12.2354 111.999 12.9884C111.057 13.7413 110.682 14.8706 110.682 16C110.682 17.1294 111.057 18.2588 111.999 19.2C112.94 19.953 114.258 20.3294 115.764 20.3294C117.269 20.3294 118.587 19.953 119.527 19.2Z" fill="#F9F9F9"/>
<path d="M130.823 21.4589C129.317 20.1412 128.563 18.2588 128.563 16C128.563 13.7413 129.317 11.859 131.01 10.5413C132.705 9.22365 134.964 8.4707 137.599 8.4707C141.175 8.4707 144 9.78836 145.505 12.0472L142.682 13.9294C141.364 12.4237 139.67 11.4825 137.599 11.4825C136.093 11.4825 134.775 11.859 133.835 12.6119C132.893 13.3648 132.517 14.4941 132.517 15.6235C132.517 18.2588 134.399 19.953 137.599 19.953C139.293 19.953 141.175 19.2 142.305 17.8824H138.164V15.2471H146.258V23.153H143.058V21.2706C141.74 22.7765 139.858 23.5295 137.222 23.5295C134.588 23.5295 132.328 22.7765 130.823 21.4589Z" fill="#F9F9F9"/>
<path d="M130.823 21.4589C129.317 20.1412 128.563 18.2588 128.563 16C128.563 13.7413 129.317 11.859 131.01 10.5413C132.705 9.22365 134.964 8.4707 137.599 8.4707C141.175 8.4707 144 9.78836 145.505 12.0472L142.682 13.9294C141.364 12.4237 139.67 11.4825 137.599 11.4825C136.093 11.4825 134.775 11.859 133.835 12.6119C132.893 13.3648 132.517 14.4941 132.517 15.6235C132.517 18.2588 134.399 19.953 137.599 19.953C139.293 19.953 141.175 19.2 142.305 17.8824H138.164V15.2471H146.258V23.153H143.058V21.2706C141.74 22.7765 139.858 23.5295 137.222 23.5295C134.588 23.5295 132.328 22.7765 130.823 21.4589Z" fill="#F9F9F9"/>
<path d="M150.776 23.153V8.84717H162.07C163.575 8.84717 164.893 9.22364 165.835 10.1648C166.775 11.106 167.34 12.2354 167.34 13.5529C167.34 14.8706 166.964 16 165.835 16.753C164.893 17.5059 163.764 18.0706 162.259 18.0706L167.717 23.153H162.259L157.364 18.0706H154.541V23.153H150.776ZM154.729 12.0472V15.0588H161.128C162.446 15.0588 163.199 14.4941 163.199 13.5529C163.199 12.6119 162.446 12.0472 161.128 12.0472H154.729Z" fill="#F9F9F9"/>
<path d="M150.776 23.153V8.84717H162.07C163.575 8.84717 164.893 9.22364 165.835 10.1648C166.775 11.106 167.34 12.2354 167.34 13.5529C167.34 14.8706 166.964 16 165.835 16.753C164.893 17.5059 163.764 18.0706 162.259 18.0706L167.717 23.153H162.259L157.364 18.0706H154.541V23.153H150.776ZM154.729 12.0472V15.0588H161.128C162.446 15.0588 163.199 14.4941 163.199 13.5529C163.199 12.6119 162.446 12.0472 161.128 12.0472H154.729Z" fill="#F9F9F9"/>
<path d="M173.177 21.4589C171.482 20.1412 170.73 18.2588 170.73 16C170.73 13.7413 171.482 11.859 173.177 10.5413C174.871 9.22365 177.129 8.4707 179.954 8.4707C182.777 8.4707 185.036 9.22365 186.73 10.5413C188.424 11.859 189.177 13.7413 189.177 16C189.177 18.2588 188.424 20.1412 186.73 21.4589C185.036 22.7765 182.777 23.5295 179.954 23.5295C177.129 23.5295 174.871 22.7765 173.177 21.4589ZM183.718 19.2C184.659 18.4471 185.036 17.3177 185.036 16C185.036 14.6824 184.659 13.7413 183.718 12.9884C182.777 12.2354 181.459 11.859 179.954 11.859C178.447 11.859 177.129 12.2354 176.189 12.9884C175.247 13.7413 174.871 14.8706 174.871 16C174.871 17.1294 175.247 18.2588 176.189 19.2C177.129 19.953 178.447 20.3294 179.954 20.3294C181.459 20.3294 182.777 19.953 183.718 19.2Z" fill="#F9F9F9"/>
<path d="M173.177 21.4589C171.482 20.1412 170.73 18.2588 170.73 16C170.73 13.7413 171.482 11.859 173.177 10.5413C174.871 9.22365 177.129 8.4707 179.954 8.4707C182.777 8.4707 185.036 9.22365 186.73 10.5413C188.424 11.859 189.177 13.7413 189.177 16C189.177 18.2588 188.424 20.1412 186.73 21.4589C185.036 22.7765 182.777 23.5295 179.954 23.5295C177.129 23.5295 174.871 22.7765 173.177 21.4589ZM183.718 19.2C184.659 18.4471 185.036 17.3177 185.036 16C185.036 14.6824 184.659 13.7413 183.718 12.9884C182.777 12.2354 181.459 11.859 179.954 11.859C178.447 11.859 177.129 12.2354 176.189 12.9884C175.247 13.7413 174.871 14.8706 174.871 16C174.871 17.1294 175.247 18.2588 176.189 19.2C177.129 19.953 178.447 20.3294 179.954 20.3294C181.459 20.3294 182.777 19.953 183.718 19.2Z" fill="#F9F9F9"/>
<path d="M209.694 8.84717V16.9412C209.694 21.2706 206.871 23.5295 201.412 23.5295C195.953 23.5295 193.13 21.2706 193.13 16.9412V8.84717H197.082V16.5647C197.082 19.0118 198.589 20.3294 201.412 20.3294C204.236 20.3294 205.742 19.0118 205.742 16.5647V8.84717H209.694Z" fill="#F9F9F9"/>
<path d="M209.694 8.84717V16.9412C209.694 21.2706 206.871 23.5295 201.412 23.5295C195.953 23.5295 193.13 21.2706 193.13 16.9412V8.84717H197.082V16.5647C197.082 19.0118 198.589 20.3294 201.412 20.3294C204.236 20.3294 205.742 19.0118 205.742 16.5647V8.84717H209.694Z" fill="#F9F9F9"/>
<path d="M218.352 19.0118V23.153H214.399V8.84717H225.129C228.705 8.84717 230.963 10.7295 230.963 13.9294C230.963 15.4353 230.398 16.753 229.458 17.6941C228.516 18.6353 227.011 19.0118 225.316 19.0118H218.352ZM218.352 12.0472V15.8118H224.375C226.069 15.8118 226.822 15.0588 226.822 13.9294C226.822 12.8001 225.88 12.0472 224.375 12.0472H218.352Z" fill="#F9F9F9"/>
<path d="M218.352 19.0118V23.153H214.399V8.84717H225.129C228.705 8.84717 230.963 10.7295 230.963 13.9294C230.963 15.4353 230.398 16.753 229.458 17.6941C228.516 18.6353 227.011 19.0118 225.316 19.0118H218.352ZM218.352 12.0472V15.8118H224.375C226.069 15.8118 226.822 15.0588 226.822 13.9294C226.822 12.8001 225.88 12.0472 224.375 12.0472H218.352Z" fill="#F9F9F9"/>
</svg>
