<svg width="20" height="19" viewBox="0 0 20 19" fill="none" xmlns="http://www.w3.org/2000/svg">
<path d="M11.4965 17.7274L10.5055 18.6933C10.0859 19.1022 9.40743 19.1022 8.9923 18.6933L0.314697 10.2396C-0.104899 9.83066 -0.104899 9.16934 0.314697 8.76471L8.9923 0.306732C9.4119 -0.102244 10.0904 -0.102244 10.5055 0.306732L11.4965 1.27261C11.9205 1.68594 11.9116 2.36032 11.4786 2.76494L6.09977 7.75968H18.9287C19.5224 7.75968 20 8.22521 20 8.80387V10.1961C20 10.7748 19.5224 11.2403 18.9287 11.2403H6.09977L11.4786 16.2351C11.9161 16.6397 11.925 17.3141 11.4965 17.7274Z" fill="#272727"/>
</svg>
